<svg width="288" height="223" viewBox="0 0 288 223" fill="none" xmlns="http://www.w3.org/2000/svg">
<rect x="156.684" y="0.5" width="36.8507" height="220.367" rx="18.4254" transform="rotate(15.9846 156.684 0.5)" fill="white" fill-opacity="0.47"/>
<path fill-rule="evenodd" clip-rule="evenodd" d="M207.68 48.2539C199.444 55.0944 198.881 66.7997 206.424 74.3983L241.714 109.951L205.012 148.815C197.646 156.616 198.498 168.332 206.917 174.984C215.336 181.636 228.133 180.705 235.5 172.904L282.549 123.082C285.13 120.349 286.702 117.136 287.294 113.828C289.052 107.92 287.558 101.315 282.696 96.4165L236.251 49.6267C228.708 42.028 215.917 41.4134 207.68 48.2539Z" fill="white"/>
<path fill-rule="evenodd" clip-rule="evenodd" d="M80.3241 48.2539C88.5605 55.0944 89.1229 66.7997 81.5803 74.3983L46.2902 109.951L82.9918 148.815C90.3587 156.616 89.5059 168.332 81.087 174.984C72.6681 181.636 59.8712 180.705 52.5042 172.904L5.45496 123.082C2.87402 120.349 1.30197 117.136 0.710686 113.828C-1.04768 107.92 0.446495 101.315 5.30869 96.4165L51.7536 49.6267C59.2962 42.028 72.0876 41.4134 80.3241 48.2539Z" fill="white"/>
</svg>
